# xmcd CD database file
#
# Track frame offsets:
#	150
#	11907
#	28329
#	49100
#	64804
#	77767
#	95324
#	109888
#	124827
#	138372
#	153711
#	168663
#
# Disc length: 2475 seconds
#
# Revision: 0
# Processed by: cddbd v1.5.2PL0 Copyright (c) Steve Scherf et al.
# Submitted via: CDex 1.70beta2
#
DISCID=a709a90c
DTITLE=Tantowi Yahya - Livin' With Dreams
DYEAR=2008
DGENRE=Country
TTITLE0=Once A Day
TTITLE1=Kau Dan Aku Satu
TTITLE2=Farewell Party
TTITLE3=Rinduku Padamu
TTITLE4=What Are We Doing In Love
TTITLE5=Kasihmu Kasihku
TTITLE6=Back To Back
TTITLE7=Andaikan
TTITLE8=I Am A Saint
TTITLE9=Gone Out Of My Mind
TTITLE10=Lagu Untukmu
TTITLE11=Billy Can't Read
EXTD=YEAR: 2008
EXTT0=
EXTT1=
EXTT2=
EXTT3=
EXTT4=
EXTT5=
EXTT6=
EXTT7=
EXTT8=
EXTT9=
EXTT10=
EXTT11=
PLAYORDER=
